<svg width="28" height="28" viewBox="0 0 28 28" fill="none" xmlns="http://www.w3.org/2000/svg">
<path d="M6 8L12.108 12.612L12.11 12.614C12.788 13.111 13.127 13.36 13.499 13.456C13.8276 13.541 14.1724 13.541 14.501 13.456C14.873 13.36 15.213 13.111 15.893 12.612C15.893 12.612 19.81 9.606 22 8M5 17.8V10.2C5 9.08 5 8.52 5.218 8.092C5.41 7.715 5.715 7.41 6.092 7.218C6.52 7 7.08 7 8.2 7H19.8C20.92 7 21.48 7 21.907 7.218C22.284 7.41 22.59 7.715 22.782 8.092C23 8.519 23 9.079 23 10.197V17.804C23 18.922 23 19.48 22.782 19.908C22.59 20.2845 22.2837 20.5904 21.907 20.782C21.48 21 20.921 21 19.803 21H8.197C7.079 21 6.519 21 6.092 20.782C5.71569 20.5903 5.40974 20.2843 5.218 19.908C5 19.48 5 18.92 5 17.8Z" stroke="black" stroke-width="2" stroke-linecap="round" stroke-linejoin="round"/>
</svg>
