<svg width="29" height="28" viewBox="0 0 29 28" fill="none" xmlns="http://www.w3.org/2000/svg">
<path d="M6.5 8L12.608 12.612L12.61 12.614C13.288 13.111 13.627 13.36 13.999 13.456C14.3276 13.541 14.6724 13.541 15.001 13.456C15.373 13.36 15.713 13.111 16.393 12.612C16.393 12.612 20.31 9.606 22.5 8M5.5 17.8V10.2C5.5 9.08 5.5 8.52 5.718 8.092C5.91 7.715 6.215 7.41 6.592 7.218C7.02 7 7.58 7 8.7 7H20.3C21.42 7 21.98 7 22.407 7.218C22.784 7.41 23.09 7.715 23.282 8.092C23.5 8.519 23.5 9.079 23.5 10.197V17.804C23.5 18.922 23.5 19.48 23.282 19.908C23.09 20.2845 22.7837 20.5904 22.407 20.782C21.98 21 21.421 21 20.303 21H8.697C7.579 21 7.019 21 6.592 20.782C6.21569 20.5903 5.90974 20.2843 5.718 19.908C5.5 19.48 5.5 18.92 5.5 17.8Z" stroke="#A4A4A4" stroke-width="2" stroke-linecap="round" stroke-linejoin="round"/>
</svg>
