<svg width="29" height="28" viewBox="0 0 29 28" fill="none" xmlns="http://www.w3.org/2000/svg">
<path d="M8.84333 6.88889C8.9 7.72944 9.04167 8.55111 9.26833 9.335L8.135 10.4683C7.74778 9.335 7.50222 8.13556 7.41722 6.88889H8.84333ZM18.1556 18.2411C18.9583 18.4678 19.78 18.6094 20.6111 18.6661V20.0733C19.3644 19.9883 18.165 19.7428 17.0222 19.365L18.1556 18.2411ZM9.75 5H6.44444C5.925 5 5.5 5.425 5.5 5.94444C5.5 14.8128 12.6872 22 21.5556 22C22.075 22 22.5 21.575 22.5 21.0556V17.7594C22.5 17.24 22.075 16.815 21.5556 16.815C20.3844 16.815 19.2417 16.6261 18.1839 16.2767C18.0904 16.2417 17.9909 16.2257 17.8911 16.2294C17.6456 16.2294 17.4094 16.3239 17.2206 16.5033L15.1428 18.5811C12.4657 17.212 10.288 15.0343 8.91889 12.3572L10.9967 10.2794C11.2611 10.015 11.3367 9.64667 11.2328 9.31611C10.8751 8.22801 10.6934 7.08981 10.6944 5.94444C10.6944 5.425 10.2694 5 9.75 5Z" fill="#A4A4A4"/>
</svg>
