<svg width="28" height="28" viewBox="0 0 28 28" fill="none" xmlns="http://www.w3.org/2000/svg">
<path d="M8.34333 6.88889C8.4 7.72944 8.54167 8.55111 8.76833 9.335L7.635 10.4683C7.24778 9.335 7.00222 8.13556 6.91722 6.88889H8.34333ZM17.6556 18.2411C18.4583 18.4678 19.28 18.6094 20.1111 18.6661V20.0733C18.8644 19.9883 17.665 19.7428 16.5222 19.365L17.6556 18.2411ZM9.25 5H5.94444C5.425 5 5 5.425 5 5.94444C5 14.8128 12.1872 22 21.0556 22C21.575 22 22 21.575 22 21.0556V17.7594C22 17.24 21.575 16.815 21.0556 16.815C19.8844 16.815 18.7417 16.6261 17.6839 16.2767C17.5904 16.2417 17.4909 16.2257 17.3911 16.2294C17.1456 16.2294 16.9094 16.3239 16.7206 16.5033L14.6428 18.5811C11.9657 17.212 9.78802 15.0343 8.41889 12.3572L10.4967 10.2794C10.7611 10.015 10.8367 9.64667 10.7328 9.31611C10.3751 8.22801 10.1934 7.08981 10.1944 5.94444C10.1944 5.425 9.76944 5 9.25 5Z" fill="black"/>
</svg>
